# xmcd CD database file
#
# Track frame offsets:
#	150
#	58495
#	65130
#	121200
#	129235
#	160735
#	215442
#	224160
#
# Disc length: 3265 seconds
#
# Revision: 0
# Processed by: cddbd v1.5.1PL0 Copyright (c) Steve Scherf et al.
# Submitted via: CDex 1.51
#
DISCID=820cbf08
DTITLE=Kevin Hunt - Kevin Hunt Plays JS Bach
DYEAR=1998
DGENRE=Jazz
TTITLE0=Jazz, Jesu Joy
TTITLE1=Celtic Jesu
TTITLE2=True Touch
TTITLE3=Everyman's Bells
TTITLE4=Theme for Everyman
TTITLE5=Passage of Time
TTITLE6=True Bells
TTITLE7=Ave
EXTD=YEAR: 1998
EXTT0=
EXTT1=
EXTT2=
EXTT3=
EXTT4=
EXTT5=
EXTT6=
EXTT7=
PLAYORDER=
